<svg width="1392" height="351" viewBox="0 0 1392 351" fill="none" xmlns="http://www.w3.org/2000/svg">
    <path d="M0 0.312988H90.8757C119.591 0.312988 141.338 2.55299 156.116 7.033C170.894 11.513 182.84 20.5352 191.925 34.1619C201.009 47.7886 205.551 69.722 205.551 100.024C205.551 120.495 202.347 134.775 195.938 142.833C189.529 150.922 176.867 157.113 157.951 161.438C179.014 166.198 193.294 174.1 200.791 185.144C208.289 196.189 212.054 213.113 212.054 235.918V268.398C212.054 292.073 209.347 309.62 203.934 321.007C198.52 332.425 189.903 340.202 178.08 344.402C166.258 348.602 142.022 350.687 105.373 350.687H0V0.312988ZM91.0935 60.2642V138.167C94.9824 138.042 98.0313 137.949 100.178 137.949C109.138 137.949 114.831 135.74 117.289 131.353C119.747 126.967 120.96 114.366 120.96 93.5842C120.96 82.6331 119.934 74.9487 117.942 70.5309C115.951 66.1131 113.276 63.3442 110.04 62.1931C106.805 61.042 100.489 60.3886 91.0935 60.2331V60.2642ZM91.0935 192.704V290.736C103.942 290.3 112.125 288.278 115.64 284.669C119.156 281.06 120.929 272.193 120.929 258.069V225.402C120.929 210.407 119.342 201.322 116.169 198.149C112.996 194.976 104.627 193.171 91.0624 192.736L91.0935 192.704Z"
          fill="black"/>
    <path d="M443.054 204.336C443.054 238.168 442.245 262.158 440.656 276.217C439.068 290.306 434.063 303.169 425.643 314.805C417.222 326.441 405.864 335.415 391.57 341.637C377.245 347.889 360.583 351 341.554 351C322.524 351 307.271 348.039 292.886 342.146C278.502 336.253 266.935 327.399 258.184 315.613C249.434 303.827 244.219 290.994 242.541 277.115C240.863 263.235 240.054 238.976 240.054 204.306V146.664C240.054 112.832 240.863 88.8717 242.451 74.7827C244.039 60.6936 249.044 47.831 257.465 36.1948C265.886 24.5287 277.243 15.5847 291.538 9.3628C305.862 3.11096 322.524 0 341.554 0C359.624 0 375.837 2.96139 390.221 8.85427C404.605 14.7471 416.173 23.6014 424.923 35.3872C433.674 47.1729 438.888 60.0056 440.566 73.8853C442.245 87.765 443.054 112.024 443.054 146.694V204.336ZM355.309 93.6578C355.309 77.9834 354.44 67.9625 352.702 63.5952C350.964 59.2279 347.397 57.0442 341.973 57.0442C337.388 57.0442 333.882 58.8091 331.455 62.3388C329.027 65.8686 327.799 76.3082 327.799 93.6578V250.941C327.799 270.504 328.608 282.559 330.196 287.136C331.784 291.712 335.5 293.986 341.344 293.986C347.188 293.986 351.143 291.353 352.822 286.089C354.5 280.824 355.309 268.26 355.309 248.428V93.6279V93.6578Z"
          fill="black"/>
    <path d="M471.054 0.312988H561.929C590.645 0.312988 612.392 2.55299 627.17 7.033C641.947 11.513 653.894 20.5352 662.978 34.1619C672.063 47.7886 676.605 69.722 676.605 100.024C676.605 120.495 673.401 134.775 666.992 142.833C660.583 150.922 647.921 157.113 629.005 161.438C650.067 166.198 664.347 174.1 671.845 185.144C679.343 196.189 683.107 213.113 683.107 235.918V268.398C683.107 292.073 680.401 309.62 674.987 321.007C669.574 332.425 660.956 340.202 649.134 344.402C637.312 348.602 613.076 350.687 576.427 350.687H471.054V0.312988ZM562.147 60.2642V138.167C566.036 138.042 569.085 137.949 571.232 137.949C580.192 137.949 585.885 135.74 588.343 131.353C590.801 126.967 592.014 114.366 592.014 93.5842C592.014 82.6331 590.987 74.9487 588.996 70.5309C587.005 66.1131 584.329 63.3442 581.094 62.1931C577.858 61.042 571.543 60.3886 562.147 60.2331V60.2642ZM562.147 192.704V290.736C574.996 290.3 583.178 288.278 586.694 284.669C590.209 281.06 591.983 272.193 591.983 258.069V225.402C591.983 210.407 590.396 201.322 587.223 198.149C584.049 194.976 575.681 193.171 562.116 192.736L562.147 192.704Z"
          fill="black"/>
    <path d="M978.201 0.328613V280.547H1033.61V350.671H887.107V0.328613H978.201Z" fill="black"/>
    <path d="M1053.61 0.328613H1205.53V70.4532H1144.73V136.876H1201.64V203.516H1144.73V280.547H1211.59V350.671H1053.61V0.328613Z"
          fill="black"/>
    <path d="M1231.59 0.328613H1383.51V70.4532H1322.72V136.876H1379.62V203.516H1322.72V280.547H1389.57V350.671H1231.59V0.328613Z"
          fill="black"/>
</svg>