<svg width="78" height="48" viewBox="0 0 78 48" fill="none" xmlns="http://www.w3.org/2000/svg">
<path d="M62.2887 19.1312C61.809 19.1312 61.4193 19.0112 61.1195 18.7714C60.8197 18.523 60.6698 18.2018 60.6698 17.8078C60.6698 17.1225 61.1709 16.296 62.1731 15.3281C63.1752 14.3601 64.5329 13.3023 66.246 12.1545C65.3723 12.0089 64.6185 11.8633 63.9847 11.7177C63.3594 11.5721 62.8583 11.4136 62.4814 11.2423C62.3101 11.5849 62.0617 12.0046 61.7362 12.5014C61.4107 12.9982 60.9953 13.5336 60.4899 14.1075C60.1473 14.51 59.8903 14.7927 59.719 14.9555C59.5477 15.1182 59.4278 15.2167 59.3593 15.251C59.2993 15.2767 59.265 15.2981 59.2565 15.3152C59.2308 15.3238 59.2136 15.2981 59.2051 15.2381C59.2051 15.1782 59.2094 15.131 59.2179 15.0968C59.2179 15.0625 59.2822 14.9811 59.4107 14.8527C59.5391 14.7242 59.809 14.403 60.2201 13.889C60.6484 13.3494 61.0295 12.8355 61.3636 12.3472C61.6977 11.859 61.9546 11.4307 62.1345 11.0624C61.8261 10.8654 61.6463 10.647 61.5949 10.4071C61.5264 9.996 61.6077 9.6234 61.839 9.28934C62.0703 8.95528 62.3701 8.78825 62.7384 8.78825C63.1924 8.78825 63.4193 8.98526 63.4193 9.37928C63.4193 9.57628 63.3808 9.74331 63.3037 9.88036C63.2266 10.0174 63.1495 10.1502 63.0724 10.2787C62.9183 10.4585 62.8412 10.6855 62.8412 10.9596C62.8412 11.0453 62.9868 11.1395 63.278 11.2423C63.5778 11.3365 63.9418 11.4307 64.3701 11.5249C64.807 11.6106 65.2352 11.6877 65.655 11.7562C66.0747 11.8162 66.4044 11.8547 66.6443 11.8719C66.807 11.8804 66.9055 11.9104 66.9398 11.9618C66.9826 12.0046 67.004 12.0389 67.004 12.0646C67.004 12.1502 66.8798 12.2916 66.6314 12.4886C66.1603 12.8483 65.6764 13.2852 65.1796 13.7991C64.6828 14.3045 64.2202 14.8313 63.7919 15.3794C63.3637 15.9191 63.0168 16.4287 62.7512 16.9084C62.4857 17.3881 62.3529 17.7821 62.3529 18.0904C62.3529 18.493 62.5157 18.6943 62.8412 18.6943C63.2609 18.6943 63.7191 18.553 64.2159 18.2703C64.7127 17.9877 65.2138 17.6322 65.7192 17.2039C66.2331 16.7756 66.7128 16.3345 67.1582 15.8805C67.6122 15.418 68.0019 15.0068 68.3274 14.6471C68.6529 14.2788 68.8799 14.0261 69.0084 13.889L69.2654 14.1075C69.0769 14.2873 68.8071 14.5743 68.4559 14.9683C68.1133 15.3538 67.7107 15.7863 67.2482 16.266C66.7856 16.7371 66.2802 17.1911 65.7321 17.6279C65.1924 18.0647 64.6314 18.4245 64.0489 18.7072C63.4665 18.9898 62.8797 19.1312 62.2887 19.1312Z" fill="black"/>
<path d="M52.6654 19.1826C51.826 19.1826 51.2264 18.9641 50.8666 18.5273C50.5069 18.0905 50.3184 17.5551 50.3013 16.9213C50.2928 16.4587 50.387 15.9448 50.584 15.3795C50.781 14.8141 50.9866 14.3816 51.2007 14.0818C51.8346 13.1995 52.5198 12.48 53.2564 11.9233C53.9931 11.3665 54.7126 10.9596 55.415 10.7027C56.1259 10.4371 56.7512 10.3044 57.2908 10.3044C57.8133 10.3044 58.1774 10.39 58.3829 10.5613C58.5971 10.7326 58.7084 10.9297 58.717 11.1524C58.7427 11.4864 58.5628 11.8761 58.1774 12.3216C57.8005 12.7584 57.1366 13.2338 56.1859 13.7477C55.2351 14.2617 53.9074 14.8013 52.2029 15.3666C51.9031 15.8463 51.7018 16.2617 51.599 16.6129C51.4962 16.9555 51.4448 17.2639 51.4448 17.538C51.4448 17.9406 51.5776 18.2532 51.8431 18.4759C52.1172 18.6986 52.4384 18.81 52.8067 18.81C53.6119 18.81 54.3657 18.6601 55.0681 18.3603C55.779 18.0519 56.4257 17.6665 57.0082 17.2039C57.5992 16.7414 58.1174 16.2746 58.5628 15.8035C59.0082 15.3238 59.3723 14.9084 59.6549 14.5572C59.9376 14.1974 60.126 13.9747 60.2203 13.8891L60.4901 14.1075C60.3616 14.2188 60.1432 14.4629 59.8348 14.8398C59.535 15.2167 59.1496 15.6493 58.6785 16.1375C58.2159 16.6257 57.6806 17.1011 57.0724 17.5637C56.4643 18.0262 55.7876 18.4117 55.0424 18.72C54.3057 19.0284 53.5134 19.1826 52.6654 19.1826ZM52.4984 14.9169C54.1601 14.3345 55.4706 13.7349 56.43 13.1182C57.3893 12.4929 57.869 11.8976 57.869 11.3322C57.869 10.8526 57.6463 10.6127 57.2009 10.6127C56.627 10.6127 56.006 10.9211 55.3379 11.5378C54.6698 12.1545 53.8903 13.0496 52.9995 14.2231C52.811 14.4629 52.644 14.6942 52.4984 14.9169Z" fill="black"/>
<path d="M45.303 19.1312C44.8319 19.1312 44.4807 19.037 44.2494 18.8485C44.0096 18.6601 43.8896 18.4202 43.8896 18.129C43.8896 17.8977 43.9196 17.6708 43.9796 17.4481C44.0395 17.2168 44.168 16.9256 44.365 16.5744C44.562 16.2232 44.8618 15.7521 45.2644 15.1611C45.667 14.5615 46.2109 13.7777 46.8962 12.8098L50.211 8.14586H49.196C48.9391 8.14586 48.8106 8.09019 48.8106 7.97883C48.8106 7.84178 48.9733 7.77326 49.2988 7.77326H50.468L52.845 4.43269C52.9563 4.44982 53.1019 4.46696 53.2818 4.48409C53.4703 4.49265 53.7358 4.49265 54.0784 4.48409C54.2497 4.48409 54.4339 4.46696 54.6309 4.43269L52.1512 7.77326H55.466C55.7059 7.77326 55.8258 7.83322 55.8258 7.95314C55.8258 8.08162 55.7187 8.14586 55.5046 8.14586H51.8685L48.4765 12.7199C47.6714 13.7991 47.0247 14.6857 46.5364 15.3795C46.0482 16.0733 45.6756 16.6215 45.4186 17.0241C45.1702 17.4266 44.9989 17.7264 44.9047 17.9234C44.819 18.1204 44.7762 18.2661 44.7762 18.3603C44.7762 18.6173 44.9903 18.7543 45.4186 18.7714C46.0096 18.7629 46.6178 18.5701 47.2431 18.1933C47.8769 17.8078 48.4851 17.341 49.0675 16.7928C49.65 16.236 50.1725 15.6921 50.635 15.1611C51.0976 14.6214 51.4573 14.1974 51.7143 13.8891L51.997 14.1075C51.7486 14.3987 51.3845 14.8184 50.9049 15.3666C50.4252 15.9148 49.8727 16.4801 49.2474 17.0626C48.6307 17.6365 47.984 18.1247 47.3073 18.5273C46.6306 18.9299 45.9625 19.1312 45.303 19.1312Z" fill="black"/>
<path d="M37.8255 19.401C37.5599 19.401 37.2173 19.3667 36.7976 19.2982C36.3779 19.2297 36.0053 19.0841 35.6798 18.8613C35.3457 18.6386 35.1787 18.2917 35.1787 17.8206C35.1787 17.3924 35.3115 17.0412 35.577 16.7671C35.834 16.4844 36.1209 16.2745 36.4379 16.1375C36.7548 16.0005 36.9903 15.9319 37.1445 15.9319C37.4957 15.9319 37.6713 16.0947 37.6713 16.4202C37.6627 16.5572 37.5642 16.6857 37.3758 16.8056C37.1959 16.917 36.9946 16.9726 36.7719 16.9726C36.6691 16.9726 36.5706 16.9384 36.4764 16.8699C36.3736 16.7928 36.2922 16.7371 36.2323 16.7028C36.1381 16.797 35.9967 16.9384 35.8083 17.1268C35.6113 17.3067 35.5128 17.5423 35.5128 17.8335C35.5128 18.159 35.6455 18.4031 35.9111 18.5658C36.168 18.72 36.4593 18.8228 36.7848 18.8742C37.1102 18.917 37.3587 18.9384 37.53 18.9384C37.8897 18.9384 38.3394 18.7971 38.879 18.5144C39.4187 18.2232 39.9198 17.7393 40.3823 17.0626C40.8534 16.3859 41.1575 15.4651 41.2945 14.3002C41.3374 13.889 41.3759 13.3194 41.4102 12.5914C41.453 11.8633 41.59 11.1652 41.8213 10.4971C41.8299 10.4714 41.8342 10.4328 41.8342 10.3814C41.5087 10.784 41.1575 11.2166 40.7806 11.6791C40.4037 12.1417 40.0397 12.5871 39.6885 13.0154C39.3459 13.4436 39.0504 13.8077 38.802 14.1075C38.6306 14.313 38.5064 14.4458 38.4293 14.5058C38.3523 14.5657 38.318 14.5957 38.3266 14.5957C38.318 14.5957 38.2837 14.6 38.2238 14.6085C38.1724 14.6085 38.1296 14.5786 38.0953 14.5186C38.0782 14.4758 38.1167 14.3944 38.2109 14.2745C38.3137 14.1546 38.4208 14.0261 38.5321 13.889C38.7291 13.6663 39.0332 13.3109 39.4444 12.8226C39.8555 12.3344 40.2881 11.8119 40.7421 11.2551C41.2046 10.6984 41.6029 10.2059 41.937 9.77758C41.9883 9.52061 42.0654 9.28934 42.1682 9.08377C42.271 8.87819 42.4166 8.77541 42.6051 8.77541C42.9477 8.77541 43.119 8.91674 43.119 9.1994C43.1104 9.36215 42.9134 9.66622 42.528 10.1116C42.2967 10.3857 42.1725 10.5656 42.1554 10.6513C42.1382 10.7284 42.1297 10.8311 42.1297 10.9596C42.1211 11.268 42.1511 11.6534 42.2196 12.116C42.2967 12.5699 42.3781 13.0496 42.4637 13.555C42.5494 14.0518 42.6051 14.5272 42.6308 14.9812C42.6565 15.6578 42.5794 16.2446 42.3995 16.7414C42.5365 16.7585 42.6522 16.7671 42.7464 16.7671C43.0205 16.7671 43.3331 16.6429 43.6843 16.3945C44.0441 16.1461 44.3996 15.8506 44.7507 15.5079C45.1019 15.1653 45.406 14.8398 45.663 14.5315C45.9285 14.2231 46.1041 14.009 46.1898 13.889L46.4724 14.1075C46.3268 14.2616 46.1127 14.5015 45.83 14.827C45.5473 15.1439 45.2261 15.478 44.8664 15.8291C44.5066 16.1718 44.1383 16.4673 43.7614 16.7157C43.3931 16.9555 43.0419 17.0754 42.7079 17.0754C42.6308 17.0754 42.558 17.0754 42.4894 17.0754C42.4209 17.0669 42.3524 17.0583 42.2839 17.0497C41.8813 17.9405 41.286 18.5573 40.4979 18.8999C39.7099 19.2339 38.8191 19.401 37.8255 19.401Z" fill="black"/>
<path d="M38.557 7.85032C38.3172 7.85032 38.1245 7.77751 37.9789 7.6319C37.8418 7.47772 37.7733 7.28499 37.7733 7.05372C37.7733 6.75393 37.8975 6.47983 38.1459 6.23143C38.4029 5.97446 38.7069 5.84598 39.0581 5.84598C39.298 5.84598 39.4864 5.92735 39.6235 6.0901C39.7691 6.24428 39.8419 6.43272 39.8419 6.65542C39.8419 6.97235 39.7048 7.25073 39.4307 7.49056C39.1652 7.7304 38.874 7.85032 38.557 7.85032ZM31.9915 19.1312C31.469 19.1312 31.0493 19.0369 30.7324 18.8485C30.4069 18.6515 30.2441 18.3902 30.2441 18.0647C30.2441 17.8078 30.3084 17.5123 30.4369 17.1782C30.5653 16.8356 30.8138 16.3902 31.1821 15.842C31.5418 15.2938 32.0686 14.5828 32.7624 13.7092C33.4648 12.8269 34.3856 11.7219 35.5248 10.3943C35.6019 10.4029 35.7861 10.4114 36.0773 10.42C36.3685 10.4285 36.5955 10.4328 36.7583 10.4328C36.9039 10.4328 37.0109 10.4328 37.0795 10.4328C37.1566 10.4243 37.2294 10.4157 37.2979 10.4071C36.0473 11.8804 35.0237 13.0924 34.2271 14.0432C33.4391 14.994 32.8309 15.752 32.4027 16.3174C31.9744 16.8827 31.6789 17.3153 31.5161 17.615C31.3534 17.9148 31.272 18.1547 31.272 18.3346C31.272 18.5573 31.3919 18.6857 31.6318 18.72C31.8716 18.7543 32.0643 18.7714 32.2099 18.7714C32.6725 18.7714 33.1779 18.6172 33.726 18.3089C34.2742 17.9919 34.8182 17.6022 35.3578 17.1397C35.906 16.6686 36.4114 16.1932 36.8739 15.7135C37.345 15.2338 37.7305 14.8227 38.0303 14.4801C38.33 14.1289 38.5056 13.9276 38.557 13.8762L38.814 14.1075C38.7198 14.2102 38.5142 14.4458 38.1973 14.8141C37.8804 15.1824 37.4863 15.6107 37.0152 16.0989C36.5441 16.5786 36.0259 17.0497 35.4606 17.5123C34.9038 17.9748 34.3256 18.3603 33.726 18.6686C33.135 18.977 32.5568 19.1312 31.9915 19.1312Z" fill="black"/>
<path d="M25.7736 19.1312C25.2511 19.1312 24.8614 19.0155 24.6044 18.7843C24.3475 18.5444 24.219 18.2532 24.219 17.9106C24.219 17.6622 24.3303 17.2682 24.5531 16.7285C24.7758 16.1889 25.2383 15.388 25.9407 14.3259C26.763 13.101 27.6881 11.8676 28.7159 10.6256C29.7438 9.375 30.7931 8.16297 31.8638 6.98949C32.943 5.81601 33.9795 4.71962 34.9731 3.70032C35.9753 2.68102 36.8618 1.7902 37.6327 1.02787C37.2472 1.30196 36.819 1.63602 36.3479 2.03004C35.8768 2.42405 35.2986 2.9337 34.6133 3.55899C33.9281 4.17571 33.0844 4.95517 32.0822 5.89738C31.08 6.8396 29.8594 8.00023 28.4204 9.37928C27.7009 10.0645 26.6559 11.1138 25.2854 12.5271C23.9235 13.9404 22.3217 15.7221 20.4801 17.872C20.0347 18.3945 19.7263 18.7157 19.555 18.8357C19.3923 18.9556 19.2638 19.0155 19.1696 19.0155C19.1096 19.0155 19.0454 18.9727 18.9769 18.887C18.9169 18.8014 18.8869 18.6643 18.8869 18.4759C18.8869 17.7564 19.1353 16.8142 19.6321 15.6493C20.1289 14.4758 20.8313 13.1524 21.7393 11.6791C22.6558 10.1973 23.7393 8.6298 24.9899 6.97664C26.2405 5.32349 27.6152 3.64893 29.1142 1.95295C28.6346 2.38979 27.7566 3.26776 26.4803 4.58685C25.2126 5.90595 23.4524 7.80322 21.1996 10.2787C19.2467 12.4201 17.4907 14.1503 15.9318 15.4694C14.3729 16.7799 12.9938 17.7393 11.7946 18.3474C10.7668 18.8614 9.8588 19.1183 9.07077 19.1183C8.2656 19.1183 7.66173 18.9641 7.25915 18.6558C6.85656 18.3474 6.65527 17.9534 6.65527 17.4737C6.65527 17.0797 6.78804 16.7885 7.05357 16.6C7.31911 16.403 7.58464 16.3045 7.85017 16.3045C7.98722 16.3045 8.12855 16.3516 8.27417 16.4459C8.42835 16.5401 8.50544 16.69 8.50544 16.8956C8.50544 17.0583 8.43263 17.2082 8.28702 17.3452C8.1414 17.4737 7.97009 17.538 7.77308 17.538C7.66173 17.538 7.55038 17.5294 7.43902 17.5123C7.33624 17.4951 7.24202 17.4566 7.15636 17.3966C7.15636 17.4309 7.15208 17.4609 7.14351 17.4866C7.14351 17.5123 7.14351 17.5337 7.14351 17.5508C7.14351 17.9191 7.30626 18.2147 7.63175 18.4374C7.95724 18.6601 8.43263 18.7714 9.05792 18.7714C9.69177 18.7714 10.4198 18.583 11.2421 18.2061C12.073 17.8292 13.0495 17.2039 14.1716 16.3302C15.3022 15.448 16.6299 14.2616 18.1546 12.7712C19.6792 11.2808 21.4566 9.42639 23.4866 7.20791C25.1912 5.34919 26.5874 3.90161 27.6752 2.86518C28.7716 1.82018 29.5939 1.08783 30.1421 0.668113C30.6989 0.248401 31.0158 0.038545 31.0929 0.038545C31.1528 0.038545 31.2256 0.0513933 31.3113 0.07709C31.397 0.0942211 31.4398 0.124201 31.4398 0.167028C31.4398 0.218422 31.3755 0.299794 31.2471 0.411147C31.1614 0.488237 31.0543 0.582458 30.9258 0.69381C30.8059 0.805162 30.656 0.950777 30.4762 1.13065C30.2534 1.37049 29.9108 1.8159 29.4483 2.46688C28.9943 3.1093 28.4632 3.88876 27.8551 4.80528C27.2555 5.71323 26.6131 6.69826 25.9278 7.76039C25.2511 8.82252 24.5788 9.89322 23.9106 10.9725C23.2425 12.0517 22.613 13.0753 22.0219 14.0432C21.4395 15.0111 20.9341 15.8677 20.5058 16.6129C20.0861 17.3495 19.7863 17.902 19.6064 18.2703C20.5401 17.1911 21.3838 16.2232 22.1376 15.3666C22.8999 14.51 23.628 13.7092 24.3218 12.964C25.0242 12.2102 25.7394 11.4607 26.4675 10.7155C27.2041 9.97031 28.0093 9.17799 28.883 8.33857C29.7566 7.49058 30.7503 6.5398 31.8638 5.48624C33.3456 4.10718 34.5791 3.01936 35.5641 2.22276C36.5577 1.4176 37.35 0.84799 37.9411 0.513933C38.5321 0.171311 38.9604 0 39.2259 0C39.3116 0 39.3544 0.0342622 39.3544 0.102787C39.3544 0.162746 39.243 0.269815 39.0203 0.423995C38.7976 0.578175 38.5578 0.766617 38.3008 0.989322C37.4528 1.73452 36.532 2.68958 35.5384 3.8545C34.5534 5.01085 33.5426 6.27855 32.5062 7.65761C31.4698 9.03666 30.4462 10.4371 29.4354 11.859C28.4247 13.2809 27.4739 14.6257 26.5831 15.8934C26.1805 16.4844 25.8807 16.9341 25.6837 17.2425C25.4953 17.5423 25.3753 17.7607 25.324 17.8977C25.2726 18.0262 25.2469 18.1418 25.2469 18.2446C25.2469 18.6044 25.4953 18.7843 25.9921 18.7843C26.2405 18.7843 26.5745 18.7243 26.9942 18.6044C27.4225 18.4759 27.8679 18.296 28.3305 18.0648C28.793 17.8249 29.1956 17.538 29.5382 17.2039C29.581 17.221 29.6025 17.2767 29.6025 17.3709C29.6025 17.4994 29.581 17.5979 29.5382 17.6665C29.1699 17.9748 28.7459 18.2403 28.2662 18.4631C27.7866 18.6772 27.324 18.8442 26.8786 18.9641C26.4332 19.0755 26.0649 19.1312 25.7736 19.1312Z" fill="black"/>
<path d="M57.7002 20.2892H63.3374V22.8909H61.0809V25.3562H63.1929V27.8295H61.0809V30.6883H63.5623V33.2901H57.7002V20.2892Z" fill="black"/>
<path d="M50.8584 20.2892H56.4956V22.8909H54.2391V25.3562H56.3511V27.8295H54.2391V30.6883H56.7205V33.2901H50.8584V20.2892Z" fill="black"/>
<path d="M47.9745 20.2892V30.6883H50.0302V33.2901H44.5938V20.2892H47.9745Z" fill="black"/>
<path d="M32.5986 20.2892H35.9713C37.0367 20.2892 37.8424 20.3721 38.3884 20.5381C38.9398 20.704 39.3842 21.0413 39.7214 21.5499C40.0587 22.0531 40.2274 22.8669 40.2274 23.9911C40.2274 24.7513 40.1069 25.2813 39.866 25.5811C39.6304 25.8809 39.162 26.1111 38.4607 26.2717C39.2423 26.4483 39.7723 26.7428 40.0507 27.155C40.3291 27.5618 40.4683 28.1882 40.4683 29.034V30.2386C40.4683 31.1165 40.3665 31.767 40.1631 32.1899C39.965 32.6128 39.6465 32.9019 39.2075 33.0572C38.7685 33.2124 37.8691 33.2901 36.5094 33.2901H32.5986V20.2892ZM35.9794 22.5135V25.4044C36.1239 25.399 36.2363 25.3964 36.3166 25.3964C36.6485 25.3964 36.86 25.3161 36.951 25.1555C37.042 24.9895 37.0875 24.5211 37.0875 23.7502C37.0875 23.3433 37.0501 23.0596 36.9751 22.899C36.9002 22.733 36.8011 22.6286 36.678 22.5858C36.5602 22.543 36.3273 22.5189 35.9794 22.5135ZM35.9794 27.428V31.0657C36.4558 31.0496 36.7583 30.9747 36.8868 30.8408C37.0206 30.707 37.0875 30.3778 37.0875 29.8531V28.6406C37.0875 28.0838 37.0286 27.7465 36.9109 27.6288C36.7931 27.511 36.4826 27.4441 35.9794 27.428Z" fill="black"/>
<path d="M31.3293 27.9018C31.3293 29.2081 31.2971 30.1342 31.2329 30.6803C31.174 31.221 30.9813 31.7162 30.6547 32.1658C30.3335 32.6155 29.8972 32.9608 29.3458 33.2017C28.7944 33.4426 28.152 33.5631 27.4185 33.5631C26.7226 33.5631 26.0962 33.4507 25.5395 33.2258C24.9881 32.9956 24.5437 32.653 24.2064 32.198C23.8692 31.7429 23.6684 31.2477 23.6042 30.7124C23.5399 30.177 23.5078 29.2402 23.5078 27.9018V25.6774C23.5078 24.3712 23.5373 23.4477 23.5961 22.907C23.6604 22.361 23.8531 21.8631 24.1743 21.4134C24.5009 20.9637 24.9399 20.6184 25.4913 20.3775C26.0427 20.1366 26.6851 20.0161 27.4185 20.0161C28.1145 20.0161 28.7382 20.1312 29.2896 20.3614C29.8463 20.5863 30.2934 20.9262 30.6306 21.3813C30.9679 21.8363 31.1687 22.3315 31.2329 22.8669C31.2971 23.4022 31.3293 24.3391 31.3293 25.6774V27.9018ZM27.9485 23.6297C27.9485 23.0248 27.9137 22.6393 27.8441 22.4734C27.7799 22.3021 27.6434 22.2164 27.4346 22.2164C27.2579 22.2164 27.1214 22.286 27.0251 22.4252C26.934 22.559 26.8885 22.9606 26.8885 23.6297V29.7006C26.8885 30.4554 26.918 30.9212 26.9769 31.0978C27.0411 31.2745 27.1857 31.3628 27.4105 31.3628C27.6407 31.3628 27.7879 31.2611 27.8522 31.0577C27.9164 30.8542 27.9485 30.3698 27.9485 29.6042V23.6297Z" fill="black"/>
<path d="M14.5137 20.2892H17.8864C18.9517 20.2892 19.7574 20.3721 20.3035 20.5381C20.8549 20.704 21.2992 21.0413 21.6365 21.5499C21.9738 22.0531 22.1424 22.8669 22.1424 23.9911C22.1424 24.7513 22.0219 25.2813 21.781 25.5811C21.5455 25.8809 21.077 26.1111 20.3757 26.2717C21.1574 26.4483 21.6873 26.7428 21.9657 27.155C22.2441 27.5618 22.3833 28.1882 22.3833 29.034V30.2386C22.3833 31.1165 22.2816 31.767 22.0782 32.1899C21.8801 32.6128 21.5615 32.9019 21.1226 33.0572C20.6836 33.2124 19.7842 33.2901 18.4244 33.2901H14.5137V20.2892ZM17.8944 22.5135V25.4044C18.0389 25.399 18.1514 25.3964 18.2317 25.3964C18.5636 25.3964 18.775 25.3161 18.8661 25.1555C18.9571 24.9895 19.0026 24.5211 19.0026 23.7502C19.0026 23.3433 18.9651 23.0596 18.8901 22.899C18.8152 22.733 18.7162 22.6286 18.593 22.5858C18.4753 22.543 18.2424 22.5189 17.8944 22.5135ZM17.8944 27.428V31.0657C18.3709 31.0496 18.6733 30.9747 18.8018 30.8408C18.9357 30.707 19.0026 30.3778 19.0026 29.8531V28.6406C19.0026 28.0838 18.9437 27.7465 18.8259 27.6288C18.7081 27.511 18.3976 27.4441 17.8944 27.428Z" fill="black"/>
<path d="M76.4395 34.4737V42.9697H77.363V45.186H76.4395V47.4746H73.1953V45.186H69.3408V42.9697L72.1434 34.4737H76.4395ZM73.1953 42.9697V37.4368L71.766 42.9697H73.1953Z" fill="black"/>
<path d="M68.5617 45.2582V47.4746H61.4229V45.6196C63.5375 42.1613 64.7929 40.0225 65.189 39.2035C65.5905 38.379 65.7913 37.7366 65.7913 37.2762C65.7913 36.9229 65.7297 36.6606 65.6066 36.4892C65.4888 36.3126 65.3068 36.2243 65.0605 36.2243C64.8143 36.2243 64.6296 36.3206 64.5065 36.5133C64.3887 36.7061 64.3298 37.0888 64.3298 37.6617V38.8983H61.4229V38.4245C61.4229 37.6965 61.4603 37.1236 61.5353 36.7061C61.6102 36.2831 61.7949 35.8682 62.0894 35.4614C62.3838 35.0545 62.7666 34.7467 63.2377 34.5379C63.7088 34.3291 64.2736 34.2247 64.9321 34.2247C66.2223 34.2247 67.1966 34.5459 67.8551 35.1884C68.5189 35.8254 68.8508 36.6338 68.8508 37.6135C68.8508 38.3576 68.6634 39.1446 68.2887 39.9744C67.9193 40.8041 66.8245 42.5654 65.0043 45.2582H68.5617Z" fill="black"/>
<path d="M60.4028 38.8742V43.2105C60.4028 44.1956 60.3493 44.9129 60.2422 45.3626C60.1351 45.8123 59.913 46.2326 59.5757 46.6234C59.2384 47.0142 58.8316 47.2952 58.3551 47.4665C57.8786 47.6379 57.346 47.7235 56.7571 47.7235C55.9808 47.7235 55.3357 47.6352 54.8218 47.4585C54.3079 47.2765 53.8983 46.9954 53.5932 46.6153C53.288 46.2352 53.0712 45.8364 52.9427 45.4188C52.8142 44.9959 52.75 44.3267 52.75 43.4113V38.8742C52.75 37.6804 52.8517 36.7864 53.0551 36.1921C53.2639 35.5979 53.6735 35.1214 54.2838 34.7628C54.8994 34.4041 55.6436 34.2247 56.5162 34.2247C57.2282 34.2247 57.8653 34.3505 58.4274 34.6022C58.9895 34.8484 59.4097 35.1509 59.6881 35.5096C59.9665 35.8682 60.1539 36.2724 60.2502 36.7221C60.352 37.1718 60.4028 37.8892 60.4028 38.8742ZM57.1586 37.7821C57.1586 37.0915 57.1238 36.6606 57.0542 36.4892C56.99 36.3126 56.8347 36.2243 56.5885 36.2243C56.3475 36.2243 56.1869 36.3179 56.1066 36.5053C56.0317 36.6873 55.9942 37.1129 55.9942 37.7821V44.126C55.9942 44.8808 56.029 45.3359 56.0986 45.4911C56.1736 45.6464 56.3315 45.724 56.5724 45.724C56.8133 45.724 56.9712 45.633 57.0462 45.451C57.1211 45.2689 57.1586 44.8594 57.1586 44.2223V37.7821Z" fill="black"/>
<path d="M51.4895 45.2582V47.4746H44.3506V45.6196C46.4652 42.1613 47.7206 40.0225 48.1168 39.2035C48.5183 38.379 48.719 37.7366 48.719 37.2762C48.719 36.9229 48.6575 36.6606 48.5343 36.4892C48.4166 36.3126 48.2345 36.2243 47.9883 36.2243C47.742 36.2243 47.5573 36.3206 47.4342 36.5133C47.3164 36.7061 47.2575 37.0888 47.2575 37.6617V38.8983H44.3506V38.4245C44.3506 37.6965 44.3881 37.1236 44.463 36.7061C44.538 36.2831 44.7227 35.8682 45.0171 35.4614C45.3115 35.0545 45.6943 34.7467 46.1654 34.5379C46.6365 34.3291 47.2013 34.2247 47.8598 34.2247C49.15 34.2247 50.1243 34.5459 50.7828 35.1884C51.4466 35.8254 51.7786 36.6338 51.7786 37.6135C51.7786 38.3576 51.5912 39.1446 51.2164 39.9744C50.847 40.8041 49.7523 42.5654 47.9321 45.2582H51.4895Z" fill="black"/>
<path d="M40.7129 44.8246V47.4746H38.2637V44.8246H40.7129Z" fill="black"/>
<path d="M37.878 34.4737V37.0755H35.8705V47.4746H32.4898V37.0755H30.4902V34.4737H37.878Z" fill="black"/>
<path d="M29.7194 38.4085H26.5796V37.4449C26.5796 36.9952 26.5394 36.7088 26.4591 36.5856C26.3788 36.4625 26.245 36.4009 26.0576 36.4009C25.8542 36.4009 25.6989 36.4839 25.5919 36.6499C25.4902 36.8158 25.4393 37.0674 25.4393 37.4047C25.4393 37.8383 25.4982 38.1649 25.616 38.3844C25.7284 38.6039 26.0469 38.8689 26.5716 39.1794C28.0759 40.0734 29.0235 40.8068 29.4143 41.3797C29.8051 41.9525 30.0005 42.876 30.0005 44.1501C30.0005 45.0762 29.8907 45.7588 29.6712 46.1978C29.4571 46.6368 29.0395 47.0062 28.4185 47.306C27.7975 47.6004 27.0748 47.7476 26.2504 47.7476C25.3456 47.7476 24.572 47.5763 23.9296 47.2337C23.2926 46.8911 22.875 46.4547 22.6769 45.9248C22.4788 45.3948 22.3798 44.6426 22.3798 43.6683V42.8171H25.5196V44.399C25.5196 44.8862 25.5624 45.1994 25.6481 45.3385C25.7391 45.4777 25.897 45.5473 26.1219 45.5473C26.3467 45.5473 26.5127 45.459 26.6197 45.2823C26.7322 45.1057 26.7884 44.8434 26.7884 44.4954C26.7884 43.7298 26.684 43.2293 26.4752 42.9937C26.2611 42.7582 25.7337 42.3647 24.8932 41.8133C24.0527 41.2565 23.496 40.8523 23.223 40.6007C22.9499 40.3491 22.7224 40.0011 22.5404 39.5568C22.3637 39.1125 22.2754 38.545 22.2754 37.8544C22.2754 36.8587 22.4012 36.1306 22.6528 35.6702C22.9098 35.2098 23.322 34.8511 23.8895 34.5941C24.4569 34.3318 25.1422 34.2007 25.9452 34.2007C26.8232 34.2007 27.57 34.3425 28.1856 34.6263C28.8066 34.91 29.2162 35.2687 29.4143 35.7023C29.6177 36.1306 29.7194 36.8613 29.7194 37.8945V38.4085Z" fill="black"/>
<path d="M15.7148 34.4737H21.3521V37.0755H19.0956V39.5408H21.2075V42.0141H19.0956V44.8728H21.5769V47.4746H15.7148V34.4737Z" fill="black"/>
<path d="M6.81324 34.4414C8.80425 34.4414 10.4262 35.0994 11.6792 36.4153C12.9321 37.7311 13.5586 39.2644 13.5586 41.0151C13.5586 42.8231 12.915 44.3707 11.6277 45.658C10.3404 46.9452 8.7928 47.5889 6.98488 47.5889C5.16551 47.5889 3.61505 46.9481 2.33348 45.6665C1.05192 44.3793 0.411133 42.8288 0.411133 41.0151C0.411133 39.7679 0.734385 38.6208 1.38089 37.5738C2.03311 36.5268 2.86842 35.743 3.88681 35.2224C4.9052 34.7017 5.88067 34.4414 6.81324 34.4414ZM7.12219 35.7373C5.54312 35.7373 4.24439 36.2608 3.226 37.3078C2.21334 38.3548 1.707 39.5906 1.707 41.0151C1.707 42.4626 2.22192 43.7041 3.25175 44.7397C4.2873 45.7752 5.53168 46.293 6.98488 46.293C8.43808 46.293 9.6796 45.7752 10.7094 44.7397C11.745 43.7041 12.2628 42.4626 12.2628 41.0151C12.2628 39.5047 11.7278 38.2489 10.6579 37.2477C9.59378 36.2408 8.4152 35.7373 7.12219 35.7373ZM8.58112 41.9849L9.9628 42.4569C9.49938 43.9444 8.52962 44.6882 7.05354 44.6882C6.05231 44.6882 5.25133 44.3592 4.6506 43.7013C4.05559 43.0376 3.75808 42.1537 3.75808 41.0495C3.75808 39.9109 4.06131 39.0156 4.66776 38.3633C5.27422 37.7054 6.05803 37.3764 7.01921 37.3764C8.48386 37.3764 9.46505 38.0716 9.9628 39.4618L8.57253 39.7879C8.27503 38.9927 7.76583 38.5951 7.04495 38.5951C6.47283 38.5951 6.03229 38.8125 5.72334 39.2473C5.42011 39.6764 5.2685 40.2456 5.2685 40.9551C5.2685 41.7503 5.41439 42.3682 5.70617 42.8088C6.00368 43.2436 6.42133 43.461 6.95913 43.461C7.73151 43.461 8.27217 42.969 8.58112 41.9849Z" fill="black"/>
<path d="M13.5586 41.0151C13.5586 39.2644 12.9321 37.7311 11.6792 36.4152C10.4262 35.0993 8.80424 34.4414 6.81325 34.4414C5.88069 34.4414 4.90521 34.7017 3.88683 35.2223L3.79188 35.2719C2.81642 35.7922 2.01284 36.5595 1.381 37.5738L1.32117 37.6721C0.714431 38.6925 0.411148 39.8068 0.411148 41.0151L0.412955 41.1843C0.451747 42.9254 1.09206 44.4193 2.33359 45.6664C3.57509 46.9079 5.06885 47.5482 6.81506 47.587L6.9849 47.5888C8.73635 47.5888 10.2435 46.9847 11.5063 45.7766L11.6278 45.658C12.8749 44.4109 13.5179 42.9194 13.5568 41.1837L13.5586 41.0151ZM11.8516 41.0151C11.8516 39.6145 11.361 38.4687 10.3771 37.5479L10.3755 37.5463C9.37668 36.6012 8.29591 36.1484 7.12221 36.1484C5.64456 36.1484 4.45543 36.6334 3.52126 37.5934L3.52146 37.5936C2.58115 38.5659 2.11817 39.6999 2.11817 41.0151C2.11817 42.3524 2.58897 43.4897 3.54234 44.4488C4.50146 45.4079 5.64168 45.8818 6.9849 45.8818V46.293L6.84919 46.2914C5.49908 46.261 4.33245 45.7757 3.34941 44.8353L3.25184 44.7397C2.2542 43.7365 1.73961 42.54 1.70843 41.1502L1.70703 41.0151C1.70703 39.5905 2.21331 38.3547 3.22594 37.3078C4.24433 36.2608 5.54314 35.7372 7.12221 35.7372L7.24307 35.7387C8.48875 35.7691 9.62702 36.2722 10.6579 37.2477C11.7278 38.2489 12.2628 39.5047 12.2628 41.0151L12.2612 41.1502C12.2298 42.54 11.7127 43.7365 10.7095 44.7397C9.67969 45.7753 8.4381 46.293 6.9849 46.293V45.8818C8.328 45.8818 9.46475 45.4081 10.4178 44.4498L10.4186 44.4488C11.3781 43.4894 11.8516 42.3521 11.8516 41.0151ZM5.26843 40.9551C5.26843 40.2456 5.42013 39.6763 5.72335 39.2473C6.03229 38.8124 6.47282 38.595 7.04492 38.595C7.76579 38.595 8.27497 38.9927 8.57247 39.7879L9.96291 39.4619C9.48071 38.115 8.54473 37.4205 7.15514 37.3784L7.01923 37.3764C6.05805 37.3764 5.27423 37.7054 4.66777 38.3633C4.06133 39.0155 3.75815 39.9109 3.75815 41.0494L3.75895 41.1522C3.77695 42.2086 4.07427 43.0583 4.65071 43.7012C5.23265 44.3386 6.00244 44.6672 6.9602 44.6871L7.05355 44.6881C8.48355 44.6881 9.43835 43.9901 9.91794 42.594L9.96291 42.4569L8.58111 41.985C8.27216 42.9689 7.73152 43.4609 6.9592 43.4609V43.0498C7.24935 43.0497 7.47721 42.9607 7.66727 42.7878C7.86602 42.6069 8.04768 42.3113 8.18883 41.8617L8.3151 41.4596L10.4744 42.1971L10.3554 42.5792C10.1054 43.3817 9.70686 44.0205 9.1382 44.4566C8.56756 44.8943 7.86272 45.0993 7.05355 45.0993C5.95265 45.0993 5.03568 44.7328 4.34697 43.9784L4.34456 43.9756C3.66679 43.2197 3.347 42.2297 3.347 41.0494C3.347 39.837 3.67139 38.831 4.36664 38.0833C5.05702 37.335 5.95337 36.9653 7.01923 36.9653C7.81782 36.9653 8.51719 37.1556 9.09123 37.5623C9.66498 37.9688 10.0792 38.567 10.35 39.3231L10.5051 39.7568L8.3143 40.2707L8.18742 39.932C8.05709 39.5836 7.89325 39.357 7.71444 39.2173C7.54049 39.0815 7.32488 39.0061 7.04492 39.0061C6.59505 39.0062 6.28443 39.1676 6.05901 39.4843C5.81935 39.8235 5.67958 40.3014 5.67958 40.9551C5.67959 41.706 5.81838 42.232 6.04737 42.5792C6.26613 42.8974 6.55486 43.0498 6.9592 43.0498V43.4609L6.85962 43.4583C6.36956 43.4328 5.98518 43.2163 5.70628 42.8086C5.43273 42.3956 5.28733 41.8268 5.27024 41.102L5.26843 40.9551ZM13.9698 41.0151C13.9698 42.9329 13.2823 44.5849 11.9185 45.9487C10.5547 47.3124 8.90271 48 6.9849 48C5.05696 48 3.40169 47.3163 2.04269 45.9573L2.04209 45.9565C0.683983 44.5923 2.7899e-07 42.9376 0 41.0151C0 39.6927 0.343918 38.4706 1.03108 37.3577L1.03188 37.3563C1.72035 36.2512 2.60971 35.4136 3.69973 34.8563C4.76313 34.3127 5.80251 34.0302 6.81325 34.0302C8.90484 34.0302 10.6385 34.7261 11.9769 36.1317C13.2996 37.5209 13.9698 39.1545 13.9698 41.0151Z" fill="black"/>
</svg>
