<svg width="640" height="398" viewBox="0 0 640 398" fill="none" xmlns="http://www.w3.org/2000/svg">
<path d="M515.292 158.266C511.324 158.266 508.1 157.274 505.62 155.29C503.139 153.235 501.899 150.578 501.899 147.318C501.899 141.649 506.045 134.811 514.335 126.804C522.626 118.797 533.857 110.046 548.03 100.551C540.802 99.3459 534.566 98.1413 529.322 96.9367C524.15 95.732 520.004 94.4211 516.886 93.0039C515.469 95.8383 513.414 99.3105 510.721 103.42C508.029 107.53 504.592 111.959 500.411 116.707C497.577 120.037 495.451 122.375 494.034 123.722C492.617 125.068 491.625 125.883 491.058 126.167C490.562 126.379 490.278 126.556 490.207 126.698C489.995 126.769 489.853 126.556 489.782 126.06C489.782 125.564 489.818 125.174 489.889 124.891C489.889 124.608 490.42 123.934 491.483 122.872C492.546 121.809 494.778 119.151 498.179 114.9C501.722 110.436 504.876 106.184 507.639 102.145C510.403 98.1059 512.528 94.5628 514.017 91.5159C511.466 89.8861 509.977 88.0791 509.552 86.095C508.985 82.6937 509.659 79.6113 511.572 76.8478C513.485 74.0842 515.965 72.7025 519.012 72.7025C522.768 72.7025 524.646 74.3322 524.646 77.5918C524.646 79.2216 524.327 80.6034 523.689 81.7371C523.051 82.8709 522.413 83.9692 521.776 85.0321C520.5 86.5202 519.862 88.398 519.862 90.6655C519.862 91.3741 521.067 92.1536 523.476 93.0039C525.956 93.7834 528.968 94.5628 532.511 95.3423C536.125 96.0509 539.668 96.6887 543.14 97.2555C546.612 97.7516 549.34 98.0704 551.325 98.2121C552.671 98.283 553.486 98.531 553.769 98.9562C554.124 99.3105 554.301 99.5939 554.301 99.8065C554.301 100.515 553.273 101.684 551.218 103.314C547.321 106.29 543.317 109.904 539.207 114.156C535.097 118.336 531.271 122.694 527.728 127.229C524.185 131.694 521.315 135.91 519.118 139.878C516.922 143.846 515.823 147.106 515.823 149.657C515.823 152.987 517.17 154.652 519.862 154.652C523.335 154.652 527.126 153.483 531.236 151.145C535.346 148.806 539.491 145.866 543.672 142.323C547.923 138.78 551.891 135.13 555.576 131.375C559.332 127.548 562.556 124.147 565.249 121.171C567.941 118.124 569.819 116.034 570.882 114.9L573.008 116.707C571.449 118.195 569.217 120.569 566.312 123.828C563.477 127.017 560.147 130.595 556.32 134.563C552.494 138.461 548.313 142.216 543.778 145.83C539.314 149.444 534.672 152.42 529.854 154.759C525.035 157.097 520.181 158.266 515.292 158.266Z" fill="white"/>
<path d="M435.684 158.691C428.74 158.691 423.779 156.885 420.803 153.271C417.827 149.657 416.268 145.228 416.126 139.984C416.056 136.158 416.835 131.906 418.465 127.23C420.095 122.553 421.795 118.974 423.567 116.494C428.811 109.196 434.479 103.243 440.573 98.6374C446.667 94.0315 452.62 90.6656 458.43 88.5398C464.312 86.3431 469.484 85.2448 473.949 85.2448C478.271 85.2448 481.283 85.9534 482.983 87.3706C484.755 88.7878 485.676 90.4176 485.747 92.26C485.959 95.0235 484.471 98.2477 481.283 101.932C478.165 105.546 472.673 109.479 464.808 113.731C456.942 117.982 445.959 122.446 431.858 127.123C429.377 131.091 427.712 134.528 426.862 137.433C426.012 140.268 425.586 142.819 425.586 145.086C425.586 148.417 426.685 151.003 428.881 152.845C431.149 154.688 433.806 155.609 436.853 155.609C443.514 155.609 449.75 154.369 455.56 151.889C461.442 149.338 466.792 146.149 471.61 142.323C476.5 138.496 480.787 134.634 484.471 130.737C488.156 126.769 491.168 123.332 493.506 120.427C495.845 117.451 497.403 115.608 498.183 114.9L500.415 116.707C499.352 117.628 497.545 119.647 494.994 122.765C492.514 125.883 489.325 129.462 485.428 133.501C481.602 137.54 477.173 141.472 472.142 145.299C467.111 149.125 461.513 152.314 455.348 154.865C449.254 157.416 442.699 158.691 435.684 158.691ZM434.302 123.403C448.049 118.585 458.891 113.624 466.827 108.522C474.764 103.35 478.732 98.4248 478.732 93.748C478.732 89.7799 476.889 87.7958 473.205 87.7958C468.457 87.7958 463.32 90.3468 457.792 95.4487C452.265 100.551 445.817 107.956 438.448 117.663C436.889 119.647 435.507 121.561 434.302 123.403Z" fill="white"/>
<path d="M374.779 158.267C370.882 158.267 367.976 157.487 366.063 155.928C364.079 154.369 363.087 152.385 363.087 149.976C363.087 148.063 363.335 146.185 363.831 144.343C364.327 142.429 365.39 140.02 367.02 137.115C368.649 134.21 371.13 130.312 374.46 125.423C377.79 120.463 382.29 113.979 387.959 105.972L415.382 67.3884H406.985C404.859 67.3884 403.796 66.9278 403.796 66.0066C403.796 64.8729 405.143 64.306 407.835 64.306H417.508L437.172 36.6705C438.093 36.8122 439.297 36.9539 440.785 37.0956C442.344 37.1665 444.541 37.1665 447.375 37.0956C448.793 37.0956 450.316 36.9539 451.946 36.6705L431.432 64.306H458.855C460.839 64.306 461.831 64.802 461.831 65.794C461.831 66.8569 460.945 67.3884 459.174 67.3884H429.093L401.033 105.228C394.372 114.156 389.022 121.49 384.983 127.23C380.944 132.97 377.861 137.505 375.736 140.835C373.681 144.165 372.263 146.646 371.484 148.275C370.775 149.905 370.421 151.11 370.421 151.889C370.421 154.015 372.192 155.149 375.736 155.291C380.625 155.22 385.656 153.625 390.829 150.507C396.072 147.319 401.104 143.457 405.922 138.922C410.741 134.316 415.063 129.816 418.89 125.423C422.716 120.959 425.692 117.451 427.818 114.9L430.156 116.707C428.101 119.116 425.09 122.589 421.122 127.124C417.153 131.659 412.583 136.335 407.41 141.154C402.308 145.902 396.958 149.941 391.36 153.271C385.762 156.601 380.235 158.267 374.779 158.267Z" fill="white"/>
<path d="M312.921 160.499C310.725 160.499 307.89 160.215 304.418 159.648C300.946 159.081 297.863 157.877 295.171 156.034C292.407 154.192 291.025 151.322 291.025 147.425C291.025 143.882 292.124 140.977 294.32 138.709C296.446 136.371 298.82 134.635 301.442 133.501C304.064 132.367 306.012 131.8 307.288 131.8C310.193 131.8 311.646 133.147 311.646 135.839C311.575 136.973 310.76 138.036 309.201 139.028C307.713 139.949 306.048 140.41 304.205 140.41C303.355 140.41 302.54 140.126 301.761 139.559C300.91 138.922 300.237 138.461 299.741 138.178C298.962 138.957 297.793 140.126 296.234 141.685C294.604 143.173 293.789 145.122 293.789 147.531C293.789 150.224 294.887 152.243 297.084 153.59C299.21 154.865 301.619 155.716 304.312 156.141C307.004 156.495 309.059 156.672 310.477 156.672C313.453 156.672 317.173 155.503 321.637 153.165C326.101 150.755 330.247 146.752 334.073 141.154C337.97 135.556 340.486 127.938 341.62 118.301C341.974 114.9 342.293 110.188 342.576 104.165C342.931 98.1416 344.064 92.3664 345.978 86.8393C346.049 86.6268 346.084 86.3079 346.084 85.8827C343.391 89.2132 340.486 92.7916 337.368 96.6181C334.25 100.445 331.239 104.129 328.333 107.672C325.499 111.215 323.054 114.227 320.999 116.707C319.582 118.408 318.555 119.506 317.917 120.002C317.279 120.498 316.996 120.746 317.067 120.746C316.996 120.746 316.712 120.781 316.216 120.852C315.791 120.852 315.437 120.604 315.153 120.108C315.012 119.754 315.331 119.081 316.11 118.089C316.96 117.097 317.846 116.034 318.767 114.9C320.397 113.058 322.913 110.117 326.314 106.078C329.715 102.039 333.294 97.7164 337.049 93.1105C340.876 88.5046 344.171 84.4301 346.934 80.8871C347.359 78.7613 347.997 76.8481 348.848 75.1474C349.698 73.4468 350.902 72.5964 352.461 72.5964C355.296 72.5964 356.713 73.7656 356.713 76.104C356.642 77.4504 355.012 79.9659 351.824 83.6506C349.91 85.9182 348.883 87.4062 348.741 88.1148C348.6 88.7526 348.529 89.6029 348.529 90.6658C348.458 93.2168 348.706 96.4055 349.273 100.232C349.91 103.988 350.584 107.956 351.292 112.136C352.001 116.246 352.461 120.179 352.674 123.935C352.887 129.533 352.249 134.387 350.761 138.496C351.895 138.638 352.851 138.709 353.631 138.709C355.898 138.709 358.485 137.682 361.39 135.627C364.366 133.572 367.307 131.127 370.212 128.293C373.117 125.458 375.633 122.765 377.759 120.215C379.955 117.664 381.408 115.892 382.117 114.9L384.455 116.707C383.25 117.982 381.479 119.967 379.14 122.659C376.802 125.281 374.145 128.045 371.169 130.95C368.192 133.784 365.145 136.229 362.028 138.284C358.981 140.268 356.075 141.26 353.312 141.26C352.674 141.26 352.072 141.26 351.505 141.26C350.938 141.189 350.371 141.118 349.804 141.047C346.474 148.417 341.549 153.519 335.03 156.353C328.511 159.117 321.141 160.499 312.921 160.499Z" fill="white"/>
<path d="M318.975 64.9435C316.991 64.9435 315.397 64.3412 314.192 63.1366C313.058 61.8611 312.491 60.2668 312.491 58.3535C312.491 55.8734 313.519 53.6059 315.574 51.551C317.7 49.4251 320.215 48.3622 323.12 48.3622C325.105 48.3622 326.664 49.0354 327.797 50.3818C329.002 51.6572 329.604 53.2162 329.604 55.0585C329.604 57.6804 328.47 59.9833 326.203 61.9674C324.006 63.9515 321.597 64.9435 318.975 64.9435ZM264.661 158.266C260.338 158.266 256.866 157.487 254.244 155.928C251.551 154.298 250.205 152.137 250.205 149.444C250.205 147.319 250.737 144.874 251.799 142.11C252.862 139.276 254.917 135.591 257.964 131.056C260.94 126.521 265.298 120.64 271.038 113.412C276.849 106.113 284.466 96.9724 293.891 85.989C294.528 86.0599 296.052 86.1308 298.461 86.2016C300.87 86.2725 302.748 86.3079 304.094 86.3079C305.299 86.3079 306.185 86.3079 306.752 86.3079C307.389 86.237 307.992 86.1662 308.559 86.0953C298.213 98.2833 289.745 108.31 283.155 116.176C276.636 124.041 271.605 130.312 268.062 134.989C264.519 139.666 262.074 143.244 260.728 145.724C259.382 148.204 258.708 150.188 258.708 151.676C258.708 153.519 259.7 154.582 261.684 154.865C263.669 155.149 265.263 155.29 266.468 155.29C270.294 155.29 274.475 154.015 279.01 151.464C283.545 148.842 288.045 145.618 292.509 141.791C297.044 137.894 301.225 133.961 305.051 129.993C308.948 126.025 312.137 122.624 314.617 119.789C317.097 116.884 318.55 115.219 318.975 114.794L321.101 116.707C320.322 117.557 318.621 119.506 315.999 122.553C313.377 125.6 310.118 129.143 306.22 133.182C302.323 137.15 298.036 141.047 293.359 144.874C288.753 148.7 283.97 151.889 279.01 154.44C274.12 156.991 269.337 158.266 264.661 158.266Z" fill="white"/>
<path d="M213.22 158.266C208.898 158.266 205.673 157.31 203.548 155.397C201.422 153.412 200.359 151.003 200.359 148.169C200.359 146.114 201.28 142.854 203.123 138.39C204.965 133.926 208.791 127.3 214.602 118.514C221.405 108.381 229.057 98.1769 237.561 87.9021C246.064 77.5565 254.744 67.5298 263.602 57.822C272.53 48.1141 281.104 39.044 289.324 30.6116C297.615 22.1793 304.949 14.8098 311.326 8.50323C308.138 10.7708 304.595 13.5343 300.697 16.7939C296.8 20.0535 292.017 24.2696 286.348 29.4424C280.679 34.5444 273.7 40.9927 265.409 48.7873C257.118 56.5819 247.021 66.1835 235.116 77.592C229.164 83.2608 220.519 91.9412 209.181 103.633C197.914 115.325 184.663 130.064 169.428 147.85C165.744 152.172 163.193 154.83 161.775 155.822C160.429 156.814 159.366 157.31 158.587 157.31C158.091 157.31 157.559 156.955 156.992 156.247C156.496 155.538 156.248 154.404 156.248 152.846C156.248 146.893 158.303 139.099 162.413 129.462C166.523 119.754 172.334 108.806 179.845 96.618C187.427 84.3591 196.391 71.3917 206.736 57.7157C217.082 44.0396 228.455 30.1865 240.856 16.1561C236.888 19.77 229.624 27.0332 219.066 37.9457C208.579 48.8581 194.017 64.5537 175.381 85.0323C159.224 102.747 144.698 117.061 131.801 127.974C118.905 138.815 107.496 146.752 97.5759 151.783C89.0726 156.034 81.5614 158.16 75.0422 158.16C68.3813 158.16 63.3857 156.885 60.0552 154.334C56.7248 151.783 55.0596 148.523 55.0596 144.555C55.0596 141.295 56.1579 138.886 58.3546 137.327C60.5513 135.697 62.7479 134.882 64.9446 134.882C66.0784 134.882 67.2476 135.272 68.4522 136.052C69.7277 136.831 70.3654 138.071 70.3654 139.772C70.3654 141.118 69.7631 142.358 68.5585 143.492C67.3539 144.555 65.9367 145.086 64.3069 145.086C63.3857 145.086 62.4645 145.016 61.5433 144.874C60.693 144.732 59.9135 144.413 59.2049 143.917C59.2049 144.201 59.1695 144.449 59.0986 144.661C59.0986 144.874 59.0986 145.051 59.0986 145.193C59.0986 148.24 60.445 150.684 63.1377 152.527C65.8304 154.369 69.7631 155.29 74.9359 155.29C80.1796 155.29 86.2027 153.731 93.0053 150.613C99.8788 147.496 107.957 142.323 117.24 135.095C126.593 127.796 137.577 117.982 150.19 105.653C162.803 93.323 177.506 77.9817 194.3 59.6289C208.402 44.2522 219.952 32.2768 228.951 23.7028C238.021 15.0578 244.824 8.99925 249.359 5.5271C253.965 2.05495 256.587 0.318871 257.224 0.318871C257.721 0.318871 258.323 0.425162 259.031 0.637742C259.74 0.779463 260.094 1.02747 260.094 1.38177C260.094 1.80694 259.563 2.48011 258.5 3.40129C257.791 4.03903 256.906 4.8185 255.843 5.73968C254.851 6.66086 253.611 7.86549 252.123 9.35355C250.28 11.3376 247.446 15.0224 243.619 20.4078C239.864 25.7223 235.47 32.1706 230.439 39.7526C225.479 47.2638 220.164 55.4127 214.496 64.1994C208.898 72.9861 203.335 81.8436 197.808 90.772C192.281 99.7004 187.073 108.168 182.183 116.175C177.365 124.183 173.184 131.269 169.641 137.433C166.169 143.527 163.689 148.098 162.201 151.145C169.924 142.217 176.904 134.209 183.14 127.123C189.446 120.037 195.47 113.412 201.209 107.247C207.02 101.011 212.937 94.811 218.96 88.6462C225.054 82.4813 231.715 75.9268 238.942 68.9825C246.17 61.9673 254.39 54.1018 263.602 45.386C275.861 33.9775 286.065 24.9782 294.214 18.3882C302.433 11.7274 308.988 7.01516 313.877 4.25162C318.767 1.41721 322.31 0 324.507 0C325.215 0 325.569 0.283441 325.569 0.850323C325.569 1.34634 324.648 2.2321 322.806 3.50758C320.963 4.78307 318.979 6.34199 316.854 8.18436C309.838 14.3492 302.221 22.2501 294.001 31.8871C285.852 41.4532 277.491 51.9406 268.916 63.3491C260.342 74.7576 251.875 86.3432 243.513 98.106C235.151 109.869 227.286 120.994 219.916 131.481C216.586 136.371 214.106 140.091 212.476 142.642C210.917 145.122 209.925 146.929 209.5 148.062C209.075 149.125 208.862 150.082 208.862 150.932C208.862 153.908 210.917 155.397 215.027 155.397C217.082 155.397 219.846 154.901 223.318 153.908C226.861 152.846 230.546 151.357 234.372 149.444C238.198 147.46 241.529 145.086 244.363 142.323C244.718 142.465 244.895 142.925 244.895 143.705C244.895 144.768 244.718 145.582 244.363 146.149C241.316 148.7 237.809 150.897 233.841 152.739C229.872 154.511 226.046 155.893 222.361 156.885C218.676 157.806 215.629 158.266 213.22 158.266Z" fill="white"/>
<path d="M477.338 167.846H523.973V189.369H505.306V209.764H522.777V230.225H505.306V253.874H525.833V275.398H477.338V167.846Z" fill="white"/>
<path d="M420.739 167.846H467.374V189.369H448.707V209.764H466.179V230.225H448.707V253.874H469.234V275.398H420.739V167.846Z" fill="white"/>
<path d="M396.883 167.846V253.874H413.889V275.398H368.915V167.846H396.883Z" fill="white"/>
<path d="M269.674 167.846H297.575C306.388 167.846 313.054 168.532 317.571 169.905C322.133 171.278 325.809 174.068 328.599 178.275C331.389 182.438 332.784 189.17 332.784 198.47C332.784 204.759 331.787 209.144 329.794 211.624C327.846 214.104 323.971 216.008 318.169 217.337C324.635 218.799 329.019 221.234 331.322 224.645C333.625 228.01 334.777 233.192 334.777 240.189V250.154C334.777 257.417 333.935 262.798 332.252 266.297C330.614 269.796 327.979 272.187 324.347 273.472C320.715 274.756 313.275 275.398 302.026 275.398H269.674V167.846ZM297.642 186.247V210.162C298.837 210.118 299.767 210.096 300.432 210.096C303.178 210.096 304.927 209.432 305.68 208.103C306.433 206.73 306.809 202.855 306.809 196.478C306.809 193.112 306.499 190.764 305.879 189.436C305.259 188.063 304.44 187.199 303.421 186.845C302.447 186.491 300.52 186.291 297.642 186.247ZM297.642 226.903V256.997C301.583 256.864 304.085 256.244 305.148 255.137C306.256 254.029 306.809 251.306 306.809 246.965V236.934C306.809 232.328 306.322 229.538 305.348 228.564C304.373 227.59 301.805 227.036 297.642 226.903Z" fill="white"/>
<path d="M259.178 230.823C259.178 241.629 258.912 249.291 258.381 253.808C257.894 258.281 256.299 262.378 253.598 266.098C250.941 269.818 247.331 272.675 242.769 274.668C238.208 276.66 232.893 277.657 226.826 277.657C221.068 277.657 215.887 276.727 211.281 274.867C206.719 272.962 203.043 270.128 200.253 266.364C197.463 262.599 195.802 258.503 195.271 254.074C194.739 249.645 194.474 241.895 194.474 230.823V212.421C194.474 201.615 194.717 193.975 195.204 189.502C195.736 184.985 197.33 180.866 199.987 177.146C202.689 173.426 206.321 170.569 210.882 168.576C215.444 166.584 220.758 165.587 226.826 165.587C232.583 165.587 237.743 166.539 242.304 168.444C246.91 170.304 250.608 173.116 253.399 176.88C256.189 180.645 257.849 184.741 258.381 189.17C258.912 193.599 259.178 201.349 259.178 212.421V230.823ZM231.21 195.481C231.21 190.477 230.922 187.288 230.347 185.915C229.815 184.498 228.686 183.789 226.959 183.789C225.497 183.789 224.368 184.365 223.571 185.516C222.818 186.624 222.441 189.945 222.441 195.481V245.703C222.441 251.948 222.685 255.801 223.172 257.262C223.704 258.724 224.899 259.455 226.759 259.455C228.664 259.455 229.882 258.613 230.413 256.93C230.945 255.247 231.21 251.239 231.21 244.906V195.481Z" fill="white"/>
<path d="M120.067 167.846H147.969C156.782 167.846 163.447 168.532 167.965 169.905C172.526 171.278 176.202 174.068 178.992 178.275C181.782 182.438 183.177 189.17 183.177 198.47C183.177 204.759 182.181 209.144 180.188 211.624C178.239 214.104 174.364 216.008 168.563 217.337C175.029 218.799 179.413 221.234 181.716 224.645C184.019 228.01 185.17 233.192 185.17 240.189V250.154C185.17 257.417 184.329 262.798 182.646 266.297C181.007 269.796 178.372 272.187 174.741 273.472C171.109 274.756 163.669 275.398 152.42 275.398H120.067V167.846ZM148.035 186.247V210.162C149.231 210.118 150.161 210.096 150.825 210.096C153.571 210.096 155.32 209.432 156.073 208.103C156.826 206.73 157.203 202.855 157.203 196.478C157.203 193.112 156.893 190.764 156.273 189.436C155.653 188.063 154.833 187.199 153.815 186.845C152.84 186.491 150.914 186.291 148.035 186.247ZM148.035 226.903V256.997C151.977 256.864 154.479 256.244 155.542 255.137C156.649 254.029 157.203 251.306 157.203 246.965V236.934C157.203 232.328 156.716 229.538 155.741 228.564C154.767 227.59 152.198 227.036 148.035 226.903Z" fill="white"/>
<path d="M632.36 285.191V355.475H640V373.81H632.36V392.743H605.522V373.81H573.635V355.475L596.819 285.191H632.36ZM605.522 355.475V309.704L593.697 355.475H605.522Z" fill="white"/>
<path d="M567.194 374.408V392.743H508.137V377.397C525.63 348.787 536.016 331.094 539.293 324.318C542.615 317.498 544.276 312.183 544.276 308.375C544.276 305.452 543.766 303.282 542.748 301.864C541.773 300.403 540.268 299.672 538.23 299.672C536.193 299.672 534.665 300.469 533.646 302.064C532.672 303.658 532.185 306.825 532.185 311.563V321.794H508.137V317.874C508.137 311.851 508.447 307.113 509.067 303.658C509.687 300.159 511.215 296.727 513.651 293.361C516.086 289.995 519.253 287.449 523.15 285.722C527.048 283.994 531.72 283.131 537.167 283.131C547.841 283.131 555.901 285.788 561.349 291.103C566.84 296.373 569.586 303.06 569.586 311.165C569.586 317.321 568.036 323.831 564.936 330.696C561.88 337.56 552.823 352.131 537.765 374.408H567.194Z" fill="white"/>
<path d="M499.699 321.595V357.468C499.699 365.617 499.256 371.551 498.37 375.271C497.485 378.991 495.647 382.468 492.857 385.701C490.066 388.934 486.701 391.259 482.759 392.676C478.817 394.093 474.411 394.802 469.539 394.802C463.117 394.802 457.781 394.071 453.529 392.61C449.277 391.104 445.889 388.779 443.365 385.635C440.841 382.49 439.047 379.191 437.984 375.736C436.921 372.238 436.39 366.702 436.39 359.128V321.595C436.39 311.718 437.231 304.322 438.914 299.406C440.641 294.491 444.029 290.549 449.078 287.582C454.171 284.614 460.327 283.131 467.546 283.131C473.436 283.131 478.707 284.171 483.357 286.253C488.007 288.29 491.484 290.793 493.787 293.76C496.09 296.727 497.64 300.071 498.437 303.791C499.278 307.511 499.699 313.446 499.699 321.595ZM472.861 312.56C472.861 306.847 472.573 303.282 471.997 301.864C471.466 300.403 470.181 299.672 468.144 299.672C466.151 299.672 464.822 300.447 464.158 301.997C463.538 303.503 463.228 307.024 463.228 312.56V365.041C463.228 371.285 463.516 375.05 464.092 376.334C464.712 377.618 466.018 378.261 468.011 378.261C470.004 378.261 471.311 377.508 471.931 376.002C472.551 374.496 472.861 371.108 472.861 365.838V312.56Z" fill="white"/>
<path d="M425.955 374.408V392.743H366.897V377.397C384.391 348.787 394.777 331.094 398.054 324.318C401.376 317.498 403.036 312.183 403.036 308.375C403.036 305.452 402.527 303.282 401.508 301.864C400.534 300.403 399.028 299.672 396.991 299.672C394.954 299.672 393.426 300.469 392.407 302.064C391.433 303.658 390.946 306.825 390.946 311.563V321.794H366.897V317.874C366.897 311.851 367.207 307.113 367.828 303.658C368.448 300.159 369.975 296.727 372.411 293.361C374.847 289.995 378.014 287.449 381.911 285.722C385.808 283.994 390.481 283.131 395.928 283.131C406.601 283.131 414.662 285.788 420.109 291.103C425.601 296.373 428.347 303.06 428.347 311.165C428.347 317.321 426.797 323.831 423.697 330.696C420.641 337.56 411.584 352.131 396.526 374.408H425.955Z" fill="white"/>
<path d="M336.802 370.82V392.743H316.54V370.82H336.802Z" fill="white"/>
<path d="M313.357 285.191V306.715H296.749V392.743H268.782V306.715H252.24V285.191H313.357Z" fill="white"/>
<path d="M245.863 317.742H219.889V309.77C219.889 306.05 219.556 303.68 218.892 302.662C218.228 301.643 217.121 301.134 215.571 301.134C213.888 301.134 212.603 301.82 211.718 303.193C210.876 304.566 210.455 306.648 210.455 309.438C210.455 313.025 210.942 315.727 211.917 317.542C212.847 319.358 215.482 321.55 219.822 324.119C232.267 331.515 240.106 337.583 243.339 342.321C246.572 347.06 248.189 354.7 248.189 365.24C248.189 372.902 247.281 378.549 245.465 382.18C243.693 385.812 240.239 388.868 235.101 391.348C229.964 393.784 223.985 395.002 217.165 395.002C209.68 395.002 203.281 393.584 197.966 390.75C192.696 387.916 189.241 384.306 187.603 379.922C185.964 375.537 185.145 369.315 185.145 361.254V354.213H211.12V367.3C211.12 371.33 211.474 373.921 212.183 375.072C212.935 376.224 214.242 376.799 216.102 376.799C217.962 376.799 219.335 376.069 220.221 374.607C221.151 373.146 221.616 370.976 221.616 368.097C221.616 361.764 220.752 357.623 219.025 355.674C217.254 353.725 212.891 350.47 205.938 345.909C198.985 341.303 194.379 337.959 192.12 335.878C189.862 333.796 187.979 330.917 186.473 327.241C185.012 323.566 184.281 318.871 184.281 313.158C184.281 304.92 185.322 298.897 187.404 295.089C189.529 291.28 192.94 288.313 197.634 286.187C202.329 284.017 207.997 282.932 214.641 282.932C221.904 282.932 228.082 284.105 233.175 286.453C238.312 288.8 241.7 291.767 243.339 295.354C245.022 298.897 245.863 304.943 245.863 313.49V317.742Z" fill="white"/>
<path d="M130.005 285.191H176.64V306.715H157.973V327.109H175.444V347.57H157.973V371.22H178.5V392.743H130.005V285.191Z" fill="white"/>
<path d="M56.3612 284.923C72.8321 284.923 86.2503 290.366 96.6157 301.252C106.981 312.138 112.164 324.823 112.164 339.306C112.164 354.262 106.839 367.065 96.1897 377.714C85.5404 388.364 72.7375 393.688 57.7811 393.688C42.73 393.688 29.9035 388.387 19.3015 377.785C8.69944 367.136 3.39844 354.31 3.39844 339.306C3.39844 328.988 6.0726 319.498 11.4209 310.837C16.8166 302.175 23.7268 295.691 32.1517 291.384C40.5765 287.077 48.6463 284.923 56.3612 284.923ZM58.917 295.644C45.8538 295.644 35.1098 299.974 26.685 308.636C18.3075 317.297 14.1188 327.521 14.1188 339.306C14.1188 351.28 18.3785 361.551 26.898 370.118C35.4648 378.685 45.7591 382.968 57.7811 382.968C69.803 382.968 80.0737 378.685 88.5932 370.118C97.16 361.551 101.443 351.28 101.443 339.306C101.443 326.811 97.018 316.422 88.1672 308.139C79.3637 299.809 69.6137 295.644 58.917 295.644ZM70.9863 347.328L82.4165 351.233C78.5828 363.539 70.5603 369.692 58.349 369.692C50.0662 369.692 43.44 366.97 38.4703 361.527C33.5479 356.037 31.0867 348.725 31.0867 339.59C31.0867 330.171 33.5952 322.764 38.6123 317.368C43.6293 311.925 50.1135 309.204 58.0651 309.204C70.1816 309.204 78.2988 314.955 82.4165 326.456L70.9153 329.154C68.4541 322.575 64.2417 319.285 58.278 319.285C53.545 319.285 49.9006 321.084 47.3447 324.681C44.8362 328.231 43.582 332.94 43.582 338.809C43.582 345.388 44.7889 350.5 47.2027 354.144C49.6639 357.741 53.119 359.54 57.5681 359.54C63.9577 359.54 68.4304 355.469 70.9863 347.328Z" fill="white"/>
<path d="M112.167 339.306C112.167 324.823 106.984 312.138 96.6182 301.252C86.2529 290.366 72.8348 284.923 56.364 284.923C48.6492 284.923 40.5793 287.077 32.1546 291.384L31.369 291.794C23.2994 296.098 16.6516 302.446 11.4246 310.837L10.9297 311.65C5.91028 320.091 3.4013 329.31 3.4013 339.306L3.41625 340.706C3.73717 355.109 9.03431 367.468 19.305 377.785C29.5756 388.055 41.9331 393.352 56.3789 393.673L57.7839 393.688C72.2732 393.688 84.7412 388.691 95.1883 378.696L96.1931 377.715C106.51 367.398 111.829 355.06 112.152 340.701L112.167 339.306ZM98.0449 339.306C98.0449 327.719 93.9862 318.24 85.8463 310.622L85.8331 310.609C77.5705 302.791 68.6296 299.045 58.9199 299.045C46.6957 299.045 36.8584 303.057 29.1303 310.999L29.132 311.001C21.353 319.044 17.523 328.425 17.523 339.306C17.523 350.369 21.4178 359.778 29.3047 367.712C37.2392 375.646 46.6719 379.567 57.7839 379.567V382.968L56.6612 382.955C45.4922 382.703 35.8411 378.689 27.7087 370.909L26.9015 370.118C18.6483 361.819 14.3913 351.921 14.1333 340.423L14.1217 339.306C14.1217 327.521 18.3101 317.297 26.6873 308.636C35.1121 299.975 45.8567 295.644 58.9199 295.644L59.9197 295.655C70.2249 295.907 79.6414 300.07 88.1698 308.139C97.0204 316.422 101.446 326.811 101.446 339.306L101.433 340.423C101.174 351.921 96.8957 361.819 88.5966 370.118C80.0771 378.685 69.8059 382.968 57.7839 382.968V379.567C68.8951 379.567 78.299 375.648 86.1835 367.72L86.1901 367.712C94.1275 359.775 98.0449 350.366 98.0449 339.306ZM43.5842 338.809C43.5842 332.94 44.8391 328.231 47.3475 324.681C49.9033 321.084 53.5477 319.285 58.2805 319.285C64.2441 319.285 68.4563 322.575 70.9175 329.153L82.4201 326.456C78.4311 315.314 70.688 309.569 59.1923 309.221L58.0679 309.204C50.1164 309.204 43.6321 311.925 38.6151 317.368C33.5981 322.764 31.09 330.171 31.09 339.59L31.0967 340.44C31.2456 349.179 33.7052 356.208 38.4739 361.527C43.2882 366.8 49.6564 369.518 57.5797 369.683L58.3519 369.692C70.1818 369.691 78.0806 363.917 82.0481 352.368L82.4201 351.234L70.9889 347.329C68.4331 355.469 63.9605 359.539 57.5714 359.539V356.138C59.9717 356.138 61.8567 355.401 63.429 353.97C65.0732 352.474 66.5761 350.028 67.7437 346.309L68.7883 342.983L86.6518 349.084L85.667 352.245C83.5987 358.884 80.3019 364.169 75.5976 367.777C70.8769 371.397 65.0459 373.093 58.3519 373.093C49.2445 373.093 41.6586 370.061 35.9611 363.821L35.9412 363.797C30.3343 357.544 27.6887 349.354 27.6887 339.59C27.6887 329.56 30.3723 321.237 36.1239 315.052C41.8352 308.861 49.2505 305.803 58.0679 305.803C64.6744 305.803 70.4601 307.378 75.209 310.742C79.9555 314.105 83.3824 319.053 85.6221 325.309L86.9059 328.896L68.7817 333.148L67.7321 330.346C66.6538 327.464 65.2985 325.589 63.8193 324.433C62.3802 323.31 60.5965 322.686 58.2805 322.686C54.5588 322.686 51.9892 324.022 50.1244 326.642C48.1418 329.448 46.9855 333.401 46.9855 338.809C46.9855 345.021 48.1337 349.372 50.028 352.245C51.8378 354.878 54.2264 356.138 57.5714 356.138V359.539L56.7476 359.518C52.6935 359.307 49.5136 357.515 47.2064 354.143C44.9434 350.727 43.7405 346.021 43.5991 340.025L43.5842 338.809ZM115.568 339.306C115.568 355.171 109.88 368.837 98.5979 380.12C87.3157 391.402 73.6495 397.09 57.7839 397.09C41.8347 397.09 28.1412 391.434 16.8986 380.191L16.8936 380.184C5.65838 368.899 2.308e-06 355.21 0 339.306C0 328.366 2.84513 318.256 8.52983 309.05L8.53647 309.038C14.2319 299.895 21.5893 292.966 30.6067 288.356C39.4039 283.859 48.0024 281.522 56.364 281.522C73.667 281.522 88.0088 287.279 99.0812 298.907C110.023 310.399 115.568 323.913 115.568 339.306Z" fill="white"/>
</svg>
