<svg width="24" height="24" viewBox="0 0 24 24" fill="none" xmlns="http://www.w3.org/2000/svg">
<path d="M12 2L14.4492 6.08717L19.0711 4.92893L17.9128 9.55083L22 12L17.9128 14.4492L19.0711 19.0711L14.4492 17.9128L12 22L9.55083 17.9128L4.92893 19.0711L6.08717 14.4492L2 12L6.08717 9.55083L4.92893 4.92893L9.55083 6.08717L12 2Z" fill="#FF2121"/>
<path d="M8.9165 9.76025L8.89941 10.0581C8.97103 9.93929 9.05811 9.85059 9.16064 9.79199C9.26481 9.73177 9.38444 9.70166 9.51953 9.70166C9.6888 9.70166 9.82715 9.74154 9.93457 9.82129C10.042 9.90104 10.1112 10.002 10.1421 10.124C10.173 10.2445 10.1885 10.4463 10.1885 10.7295V13H9.20215V10.7563C9.20215 10.5334 9.19482 10.3975 9.18018 10.3486C9.16553 10.2998 9.12484 10.2754 9.05811 10.2754C8.98812 10.2754 8.94417 10.3039 8.92627 10.3608C8.90837 10.4162 8.89941 10.5659 8.89941 10.8101V13H7.91309V9.76025H8.9165ZM12.7642 11.4375H11.4873V12.1382C11.4873 12.2847 11.4979 12.3791 11.519 12.4214C11.5402 12.4637 11.5809 12.4849 11.6411 12.4849C11.716 12.4849 11.7656 12.4572 11.79 12.4019C11.8161 12.3449 11.8291 12.2358 11.8291 12.0747V11.6475H12.7642V11.8867C12.7642 12.0869 12.7511 12.2407 12.7251 12.3481C12.7007 12.4556 12.6421 12.5703 12.5493 12.6924C12.4565 12.8145 12.3385 12.9064 12.1953 12.9683C12.0537 13.0285 11.8755 13.0586 11.6606 13.0586C11.4523 13.0586 11.2684 13.0285 11.1089 12.9683C10.9494 12.908 10.8249 12.8258 10.7354 12.7217C10.6475 12.6159 10.5864 12.5003 10.5522 12.375C10.5181 12.248 10.501 12.0641 10.501 11.8232V10.8784C10.501 10.5952 10.5392 10.3722 10.6157 10.2095C10.6922 10.0451 10.8175 9.91976 10.9917 9.8335C11.1659 9.74561 11.366 9.70166 11.5923 9.70166C11.869 9.70166 12.0968 9.75456 12.2759 9.86035C12.4565 9.96452 12.5827 10.1037 12.6543 10.2778C12.7275 10.4504 12.7642 10.6937 12.7642 11.0078V11.4375ZM11.7754 10.9102V10.6733C11.7754 10.5057 11.7664 10.3975 11.7485 10.3486C11.7306 10.2998 11.694 10.2754 11.6387 10.2754C11.5703 10.2754 11.528 10.2965 11.5117 10.3389C11.4954 10.3796 11.4873 10.491 11.4873 10.6733V10.9102H11.7754ZM16.2749 9.76025L15.8818 13H14.8101C14.7515 12.6045 14.6839 12.0837 14.6074 11.4375C14.5814 11.7207 14.5448 12.0072 14.4976 12.2969L14.3877 13H13.3159L12.8984 9.76025H13.748C13.7546 9.84489 13.8262 10.4626 13.9629 11.6133C13.9727 11.4961 14.0459 10.8784 14.1826 9.76025H15.0005L15.2007 11.6133C15.2316 11.0729 15.3065 10.4552 15.4253 9.76025H16.2749Z" fill="white"/>
</svg>
